<svg width="24" height="24" viewBox="0 0 24 24" fill="none" xmlns="http://www.w3.org/2000/svg">
<path d="M20 12C20 8.22877 20 6.34315 18.8284 5.17157C17.6569 4 15.7712 4 12 4C8.2288 4 6.34316 4 5.17154 5.17157C4 6.34315 4 8.22877 4 12C4 15.7712 4 17.6568 5.17154 18.8285C6.34316 20 8.2288 20 12 20C15.7712 20 17.6569 20 18.8284 18.8285C20 17.6568 20 15.7712 20 12Z" stroke="white" stroke-width="1.7"/>
<path d="M16 12H8M16 12C16 11.2998 14.0057 9.99153 13.5 9.5M16 12C16 12.7002 14.0057 14.0085 13.5 14.5" stroke="white" stroke-width="1.7" stroke-linecap="round" stroke-linejoin="round"/>
</svg>
